<?xml version="1.0" encoding="UTF-8" standalone="no"?>
<svg
   xmlns:dc="http://purl.org/dc/elements/1.1/"
   xmlns:cc="http://creativecommons.org/ns#"
   xmlns:rdf="http://www.w3.org/1999/02/22-rdf-syntax-ns#"
   xmlns:svg="http://www.w3.org/2000/svg"
   xmlns="http://www.w3.org/2000/svg"
   xmlns:xlink="http://www.w3.org/1999/xlink"
   xmlns:sodipodi="http://sodipodi.sourceforge.net/DTD/sodipodi-0.dtd"
   xmlns:inkscape="http://www.inkscape.org/namespaces/inkscape"
   id="svg8"
   version="1.1"
   viewBox="0 0 14.2875 5.0270901"
   height="5.0270901mm"
   width="14.2875mm"
   sodipodi:docname="logo.svg"
   inkscape:version="0.92.2 (unknown)">
  <sodipodi:namedview
     pagecolor="#ffffff"
     bordercolor="#666666"
     borderopacity="1"
     objecttolerance="10"
     gridtolerance="10"
     guidetolerance="10"
     inkscape:pageopacity="0"
     inkscape:pageshadow="2"
     inkscape:window-width="2560"
     inkscape:window-height="1391"
     id="namedview21"
     showgrid="true"
     inkscape:pagecheckerboard="true"
     inkscape:zoom="45.254834"
     inkscape:cx="39.523695"
     inkscape:cy="21.875026"
     inkscape:window-x="0"
     inkscape:window-y="240"
     inkscape:window-maximized="1"
     inkscape:current-layer="layer1">
    <inkscape:grid
       type="xygrid"
       id="grid890" />
  </sodipodi:namedview>
  <defs
     id="defs2">
    <linearGradient
       id="linearGradient877">
      <stop
         id="stop873"
         offset="0"
         style="stop-color:#ffffff;stop-opacity:1;" />
      <stop
         id="stop875"
         offset="1"
         style="stop-color:#ffffff;stop-opacity:0;" />
    </linearGradient>
    <linearGradient
       gradientUnits="userSpaceOnUse"
       y2="66.96991"
       x2="113.5116"
       y1="66.96991"
       x1="110.56506"
       id="linearGradient885"
       xlink:href="#linearGradient877" />
    <linearGradient
       gradientUnits="userSpaceOnUse"
       y2="62.549137"
       x2="117.00831"
       y1="62.549137"
       x1="105.24258"
       id="linearGradient887"
       xlink:href="#linearGradient877" />
  </defs>
  <metadata
     id="metadata5">
    <rdf:RDF>
      <cc:Work
         rdf:about="">
        <dc:format>image/svg+xml</dc:format>
        <dc:type
           rdf:resource="http://purl.org/dc/dcmitype/StillImage" />
        <dc:title></dc:title>
      </cc:Work>
    </rdf:RDF>
  </metadata>
  <g
     transform="translate(-76.464583,-54.906256)"
     id="layer1">
    <g
       aria-label="ART"
       transform="scale(0.99738874,1.0026181)"
       style="font-style:normal;font-weight:normal;font-size:5.4221921px;line-height:28.79999924;font-family:sans-serif;letter-spacing:-1.082744px;word-spacing:0px;fill:#ffffff;fill-opacity:1;stroke:none;stroke-width:0.25416526"
       id="text817">
      <path
         d="M 80.817308,57.996925 H 79.22348 l -0.251518,0.720135 h -1.024603 l 1.464097,-3.952799 h 1.215228 l 1.464098,3.952799 h -1.024604 z m -1.339663,-0.733372 h 1.08285 l -0.540101,-1.572648 z"
         style="font-weight:bold;letter-spacing:0px;fill:#ffffff;fill-opacity:1;stroke-width:0.25416526"
         id="path874" />
      <path
         d="m 84.060562,56.516942 q 0.320355,0 0.458027,-0.11914 0.140321,-0.11914 0.140321,-0.391838 0,-0.270051 -0.140321,-0.386543 -0.137672,-0.116492 -0.458027,-0.116492 h -0.428903 v 1.014013 z m -0.428903,0.70425 V 58.71706 H 82.61235 v -3.952799 h 1.556762 q 0.781029,0 1.143744,0.262108 0.365362,0.262108 0.365362,0.828684 0,0.391839 -0.190624,0.643356 -0.187976,0.251518 -0.569224,0.370658 0.209157,0.04766 0.373305,0.217099 0.166796,0.166796 0.33624,0.508331 l 0.553339,1.122563 h -1.085498 l -0.481855,-0.982243 q -0.145615,-0.296526 -0.296526,-0.405076 -0.148263,-0.108549 -0.397133,-0.108549 z"
         style="font-weight:bold;letter-spacing:0px;fill:#ffffff;fill-opacity:1;stroke-width:0.25416526"
         id="path876" />
      <path
         d="m 86.070057,54.764261 h 3.643035 v 0.770438 h -1.31054 v 3.182361 h -1.019308 v -3.182361 h -1.313187 z"
         style="font-weight:bold;letter-spacing:0px;fill:#ffffff;fill-opacity:1;stroke-width:0.25416526"
         id="path878" />
    </g>
    <g
       aria-label="OMNI"
       transform="scale(1.0246478,0.97594511)"
       style="font-style:normal;font-weight:normal;font-size:1.03632343px;line-height:28.79999924;font-family:sans-serif;letter-spacing:-0.20694083px;word-spacing:0px;fill:#ffffff;fill-opacity:1;stroke:none;stroke-width:0.04857766"
       id="text821">
      <path
         d="m 84.378536,60.754895 q -0.08906,0 -0.138143,0.06578 -0.04908,0.06578 -0.04908,0.185202 0,0.118914 0.04908,0.184697 0.04908,0.06578 0.138143,0.06578 0.08957,0 0.138649,-0.06578 0.04908,-0.06578 0.04908,-0.184697 0,-0.11942 -0.04908,-0.185202 -0.04908,-0.06578 -0.138649,-0.06578 z m 0,-0.141179 q 0.182166,0 0.285394,0.104239 0.103227,0.10424 0.103227,0.287924 0,0.183178 -0.103227,0.287418 -0.103228,0.10424 -0.285394,0.10424 -0.18166,0 -0.285394,-0.10424 -0.103227,-0.10424 -0.103227,-0.287418 0,-0.183684 0.103227,-0.287924 0.103734,-0.104239 0.285394,-0.104239 z"
         style="font-weight:bold;letter-spacing:-0.02428884px;fill:#ffffff;fill-opacity:1;stroke-width:0.04857766"
         id="path881" />
      <path
         d="m 84.889614,60.627378 h 0.247948 l 0.172046,0.404308 0.173058,-0.404308 h 0.247442 v 0.755484 h -0.18419 v -0.552571 l -0.17407,0.407344 H 85.24838 l -0.17407,-0.407344 v 0.552571 h -0.184696 z"
         style="font-weight:bold;letter-spacing:-0.02428884px;fill:#ffffff;fill-opacity:1;stroke-width:0.04857766"
         id="path883" />
      <path
         d="m 85.8976,60.627378 h 0.217587 l 0.274768,0.518162 v -0.518162 h 0.184696 v 0.755484 H 86.357064 L 86.082296,60.8647 v 0.518162 H 85.8976 Z"
         style="font-weight:bold;letter-spacing:-0.02428884px;fill:#ffffff;fill-opacity:1;stroke-width:0.04857766"
         id="path885" />
      <path
         d="m 86.741637,60.627378 h 0.194817 v 0.755484 h -0.194817 z"
         style="font-weight:bold;letter-spacing:-0.02428884px;fill:#ffffff;fill-opacity:1;stroke-width:0.04857766"
         id="path887" />
    </g>
    <path
       inkscape:connector-curvature="0"
       id="path829"
       d="m 89.769748,54.906263 -0.01169,0.793753 h 0.200278 v 3.43958 h -0.529166 v 0.79375 h 1.322916 v -5.02709 z"
       style="fill:#ffffff;fill-opacity:1;stroke:none;stroke-width:0.26499999;stroke-linecap:butt;stroke-linejoin:miter;stroke-miterlimit:4;stroke-dasharray:none;stroke-opacity:1"
       sodipodi:nodetypes="ccccccccc" />
    <path
       inkscape:connector-curvature="0"
       id="path831"
       d="m 77.522926,54.906256 v 0.79376 h -0.264583 v 3.43958 l 8.466657,0 v 0.79375 h -9.260417 v -5.02709 z"
       style="fill:#ffffff;fill-opacity:1;stroke:none;stroke-width:0.26458499px;stroke-linecap:butt;stroke-linejoin:miter;stroke-opacity:1"
       sodipodi:nodetypes="ccccccccc" />
    <path
       inkscape:connector-curvature="0"
       id="path833"
       d="m 77.258343,54.906266 1.058323,-3e-6 v 0.79375 l -1.058323,3e-6 z"
       style="fill:#ffffff;fill-opacity:1;stroke:none;stroke-width:0.08539398px;stroke-linecap:butt;stroke-linejoin:miter;stroke-opacity:1"
       sodipodi:nodetypes="ccccc" />
  </g>
</svg>
